# xmcd
#
# Track frame offsets:
# 150
# 15777
# 27704
# 42025
# 57731
# 70432
# 84054
# 99452
# 114524
# 128440
# 145318
# 159279
# 171874
# 185664
# 203057
# 219133
# 233217
# 245283
# 254678
# 267653
# 280535
# 295921
# 308952
# 323983
# 336960
#
# Disc length: 4705 seconds
#
#
# Revision: 0
# Processed by: cddbd v1.5.2PL0 Copyright (c) Steve Scherf et al.
# Submitted via: FreeRIP 2.942 
#
DISCID=6a125f19
DTITLE=Raphael e Gabriel - Raphael e Gabriel ao vivo em Maceió
DYEAR=2008
DGENRE=Sertanejo
TTITLE0=Uma Noite Nada Mais
TTITLE1=Ciumenta
TTITLE2=Borboletas
TTITLE3=Paixão de Cara
TTITLE4=Fotos
TTITLE5=Tem Nada a Ver
TTITLE6=O Que Tiver de Vir Virá
TTITLE7=Recomeçar
TTITLE8=Hoje Eu Quero Te Amar
TTITLE9=Pé Vermelho
TTITLE10=Tem Que Ser Você
TTITLE11=Coração Tá em Pedaços
TTITLE12=Coração Apaixonado
TTITLE13=Você Vai Ver
TTITLE14=Pode Chorar
TTITLE15=Que Pescar Que Nada
TTITLE16=Se Existe Um Paraíso
TTITLE17=Leilão
TTITLE18=De Tanto Te Querer
TTITLE19=Esperando Na Janela
TTITLE20=Nova York
TTITLE21=Fada
TTITLE22=Sexta-Feira
TTITLE23=Feriado Nacional
TTITLE24=Sem Medo De Ser Feliz
EXTD=
EXTT0=
EXTT1=
EXTT2=
EXTT3=
EXTT4=
EXTT5=
EXTT6=
EXTT7=
EXTT8=
EXTT9=
EXTT10=
EXTT11=
EXTT12=
EXTT13=
EXTT14=
EXTT15=
EXTT16=
EXTT17=
EXTT18=
EXTT19=
EXTT20=
EXTT21=
EXTT22=
EXTT23=
EXTT24=
PLAYORDER=
